<svg xmlns="http://www.w3.org/2000/svg" viewBox="0 0 559.3 810.39"><defs><style>.cls-1{fill:#fff;}.cls-2{fill:none;stroke:#fff;stroke-miterlimit:10;}</style></defs><g id="Layer_2" data-name="Layer 2"><g id="Layer_1-2" data-name="Layer 1"><path class="cls-1" d="M154.88,758.09,166.8,762v47.66L0,750.11V702.45l166.8-59.57v47.66l-11.92,3.93Zm-47.65-47.65L59.57,726.28l47.66,15.85Z"/><path class="cls-1" d="M166.8,631.21H0V547.82q0-59.58,53.61-59.57,19.42,0,29.79,11.91,10.36-11.91,29.78-11.91,53.63,0,53.62,59.57ZM47.66,583.56H71.48V547.82q0-11.93-11.91-11.92T47.66,547.82Zm47.65,0h23.83V547.82q0-11.93-11.91-11.92T95.31,547.82Z"/><path class="cls-1" d="M166.8,393.18q0,34.54-24.43,59t-59,24.42q-34.55,0-59-24.42T0,393.18q0-34.56,24.42-59t59-24.42q34.55,0,59,24.42T166.8,393.18Zm-58.14-25.26A34.43,34.43,0,0,0,83.4,357.43a35.8,35.8,0,0,0-35.74,35.75,34.39,34.39,0,0,0,10.48,25.25A34.43,34.43,0,0,0,83.4,428.92a34.43,34.43,0,0,0,25.26-10.49,35.67,35.67,0,0,0,0-50.51Z"/><path class="cls-1" d="M83.4,298.11H0V250.45H83.4q35.75,0,35.74-23.83T83.4,202.8H0V155.14H83.4q83.4,0,83.4,71.48T83.4,298.11Z"/><path class="cls-1" d="M166.8,48.16V95.81H47.66v47.66H0V.5H47.66V48.16Z"/><path class="cls-2" d="M350.88,758.09,362.8,762v47.66L196,750.11V702.45l166.8-59.57v47.66l-11.92,3.93Zm-47.65-47.65-47.66,15.84,47.66,15.85Z"/><path class="cls-2" d="M362.8,631.21H196V547.82q0-59.58,53.61-59.57,19.42,0,29.79,11.91,10.37-11.91,29.78-11.91,53.63,0,53.62,59.57ZM243.66,583.56h23.82V547.82q0-11.93-11.91-11.92t-11.91,11.92Zm47.65,0h23.83V547.82q0-11.93-11.91-11.92t-11.92,11.92Z"/><path class="cls-2" d="M362.8,393.18q0,34.54-24.43,59t-59,24.42q-34.54,0-59-24.42t-24.42-59q0-34.56,24.42-59t59-24.42q34.55,0,59,24.42T362.8,393.18Zm-58.14-25.26a35.67,35.67,0,1,0,10.48,25.26A34.43,34.43,0,0,0,304.66,367.92Z"/><path class="cls-2" d="M279.4,298.11H196V250.45h83.4q35.75,0,35.74-23.83T279.4,202.8H196V155.14h83.4q83.4,0,83.4,71.48T279.4,298.11Z"/><path class="cls-2" d="M362.8,48.16V95.81H243.66v47.66H196V.5h47.66V48.16Z"/><path class="cls-2" d="M546.88,758.09,558.8,762v47.66L392,750.11V702.45l166.8-59.57v47.66l-11.92,3.93Zm-47.65-47.65-47.66,15.84,47.66,15.85Z"/><path class="cls-2" d="M558.8,631.21H392V547.82q0-59.58,53.61-59.57,19.42,0,29.79,11.91,10.37-11.91,29.78-11.91,53.62,0,53.62,59.57ZM439.66,583.56h23.82V547.82q0-11.93-11.91-11.92t-11.91,11.92Zm47.65,0h23.83V547.82q0-11.93-11.91-11.92t-11.92,11.92Z"/><path class="cls-2" d="M558.8,393.18q0,34.54-24.43,59t-59,24.42q-34.54,0-59-24.42t-24.42-59q0-34.56,24.42-59t59-24.42q34.55,0,59,24.42T558.8,393.18Zm-58.14-25.26a35.67,35.67,0,1,0,10.48,25.26A34.43,34.43,0,0,0,500.66,367.92Z"/><path class="cls-2" d="M475.4,298.11H392V250.45h83.4q35.75,0,35.74-23.83T475.4,202.8H392V155.14h83.4q83.4,0,83.4,71.48T475.4,298.11Z"/><path class="cls-2" d="M558.8,48.16V95.81H439.66v47.66H392V.5h47.66V48.16Z"/></g></g></svg>